<svg width="32" height="32" viewBox="0 0 32 32" fill="none" xmlns="http://www.w3.org/2000/svg">
<path d="M23.0267 12.28C22.9475 11.9636 22.7862 11.6737 22.5591 11.4396C22.332 11.2055 22.0472 11.0355 21.7333 10.9467C20.5867 10.6667 16 10.6667 16 10.6667C16 10.6667 11.4133 10.6667 10.2667 10.9733C9.95283 11.0621 9.66798 11.2322 9.44089 11.4663C9.21381 11.7004 9.05252 11.9903 8.97333 12.3067C8.76347 13.4704 8.66082 14.6509 8.66666 15.8333C8.65918 17.0247 8.76184 18.2142 8.97333 19.3867C9.06064 19.6932 9.22553 19.9721 9.45209 20.1963C9.67865 20.4205 9.95921 20.5825 10.2667 20.6667C11.4133 20.9733 16 20.9733 16 20.9733C16 20.9733 20.5867 20.9733 21.7333 20.6667C22.0472 20.5779 22.332 20.4078 22.5591 20.1737C22.7862 19.9396 22.9475 19.6497 23.0267 19.3333C23.2349 18.1784 23.3375 17.0069 23.3333 15.8333C23.3408 14.642 23.2382 13.4525 23.0267 12.28V12.28Z" stroke="black" stroke-linecap="round" stroke-linejoin="round"/>
<path d="M14.5 18.0133L18.3333 15.8333L14.5 13.6533V18.0133Z" stroke="black" stroke-linecap="round" stroke-linejoin="round"/>
</svg>
