<svg width="32" height="32" viewBox="0 0 32 32" fill="none" xmlns="http://www.w3.org/2000/svg">
<path d="M8 11.008C8.12788 17.253 11.2448 21 16.7113 21H17.031V17.4291C19.037 17.6293 20.5555 19.1025 21.1628 21H24C23.7091 19.9218 23.1931 18.9175 22.4864 18.0536C21.7797 17.1897 20.8982 16.4857 19.9001 15.9879C20.7945 15.4423 21.567 14.7177 22.1693 13.8595C22.7716 13.0013 23.1908 12.0278 23.4006 11H20.8271C20.2678 12.9856 18.6054 14.787 17.031 14.9551V11.008H14.4495V17.9256C12.8512 17.5252 10.8372 15.5877 10.7492 11.008H8Z" stroke="black"/>
</svg>
