<svg width="32" height="32" viewBox="0 0 32 32" fill="none" xmlns="http://www.w3.org/2000/svg">
<path d="M21.0228 11.0894C19.4268 11.7504 12.5836 14.585 10.6928 15.3575C9.42472 15.8524 10.1671 16.3163 10.1671 16.3163C10.1671 16.3163 11.2495 16.6874 12.1774 16.9658C13.1053 17.2442 13.6001 16.9349 13.6001 16.9349L17.961 13.9967C19.5074 12.9452 19.1363 13.8111 18.7651 14.1823C17.961 14.9866 16.6311 16.2545 15.5176 17.2752C15.0228 17.7081 15.2701 18.0792 15.4868 18.2649C16.2908 18.9453 18.4868 20.3371 18.6104 20.4299C19.2638 20.8924 20.549 21.5582 20.7445 20.1515L21.5177 15.2958C21.7651 13.6566 22.0125 12.1411 22.0434 11.7081C22.1362 10.6564 21.0228 11.0894 21.0228 11.0894Z" stroke="black"/>
</svg>
