<svg width="1440" height="450" viewBox="0 0 1440 450" fill="none" xmlns="http://www.w3.org/2000/svg">
<rect width="1440" height="450" fill="#D9D9D9"/>
<path d="M960 189C960 271.843 892.843 339 810 339C727.157 339 660 271.843 660 189C660 106.157 727.157 39 810 39C892.843 39 960 106.157 960 189ZM674.297 189C674.297 263.947 735.053 324.703 810 324.703C884.947 324.703 945.703 263.947 945.703 189C945.703 114.053 884.947 53.2968 810 53.2968C735.053 53.2968 674.297 114.053 674.297 189Z" fill="#FF0000"/>
<circle cx="810" cy="281" r="25" fill="#FF0000"/>
<rect x="785" y="90" width="50" height="153" fill="#FF0000"/>
</svg>
