<svg width="227" height="254" viewBox="0 0 227 254" fill="none" xmlns="http://www.w3.org/2000/svg">
<g clip-path="url(#clip0_1_303)">
<path d="M151 57.8091C196.613 27.9322 245.862 7.74838 293.293 1C286.575 67.717 280.303 134.158 274.462 200.277C241.686 199.587 208.247 210.445 178.136 230.062C169.091 172.639 160.045 115.232 151 57.8245V57.8091Z" stroke="#DC3E48" stroke-miterlimit="10"/>
<path d="M179.215 200.507C208.401 182.577 240.068 171.795 271.288 170.231C270.78 176.933 270.271 183.651 269.763 190.353C239.852 191.243 209.557 201.228 181.742 218.267C180.895 212.347 180.063 206.427 179.215 200.507Z" stroke="#DC3E48" stroke-miterlimit="10"/>
<path d="M225.182 139.986C241.563 134.265 258.036 130.569 274.216 129.158C273.291 140.845 272.382 152.532 271.488 164.203C256.387 165.047 241.054 168.13 225.814 173.176C225.598 162.117 225.383 151.044 225.198 139.986H225.182Z" stroke="#DC3E48" stroke-miterlimit="10"/>
<path d="M223.595 29.4965C243.905 21.4598 264.23 15.6316 284.155 12.2881C283.477 19.88 282.799 27.472 282.121 35.0639C262.936 38.024 243.381 43.438 223.842 50.9993C223.749 43.8368 223.672 36.6743 223.595 29.4965Z" stroke="#DC3E48" stroke-miterlimit="10"/>
<path d="M177.813 187.378C191.774 178.866 206.382 171.841 221.376 166.55C221.453 169.234 221.53 171.933 221.607 174.617C206.891 179.755 192.56 186.611 178.876 194.939C178.522 192.424 178.167 189.909 177.813 187.393V187.378Z" stroke="#DC3E48" stroke-miterlimit="10"/>
<path d="M176.179 175.691C190.572 166.903 205.597 159.618 221.022 154.065C221.099 156.765 221.176 159.449 221.253 162.133C206.12 167.532 191.343 174.633 177.243 183.252C176.888 180.737 176.534 178.222 176.179 175.691Z" stroke="#DC3E48" stroke-miterlimit="10"/>
<path d="M174.546 164.019C189.355 154.955 204.826 147.394 220.683 141.596C220.76 144.28 220.821 146.98 220.914 149.664C205.35 155.308 190.141 162.685 175.609 171.565C175.255 169.05 174.9 166.535 174.546 164.019Z" stroke="#DC3E48" stroke-miterlimit="10"/>
<path d="M225.013 130.354C241.732 124.434 258.529 120.554 275.033 118.989C274.909 120.416 274.802 121.842 274.694 123.284C258.329 124.787 241.671 128.59 225.09 134.419C225.059 133.069 225.044 131.719 225.028 130.369L225.013 130.354Z" stroke="#DC3E48" stroke-miterlimit="10"/>
<path d="M224.905 124.066C241.856 118.023 258.852 114.02 275.572 112.348C275.464 113.775 275.341 115.201 275.218 116.643C258.652 118.253 241.779 122.164 224.967 128.13C224.951 126.781 224.92 125.416 224.905 124.066Z" stroke="#DC3E48" stroke-miterlimit="10"/>
<path d="M224.797 117.793C241.963 111.627 259.191 107.502 276.111 105.723C275.988 107.149 275.88 108.591 275.757 110.017C258.976 111.75 241.886 115.784 224.859 121.873C224.859 120.523 224.812 119.158 224.782 117.808L224.797 117.793Z" stroke="#DC3E48" stroke-miterlimit="10"/>
<path d="M173.282 155.078C188.415 145.783 204.225 138.023 220.405 132.026C220.436 133.376 220.467 134.71 220.513 136.06C204.472 141.98 188.8 149.648 173.806 158.851C173.637 157.593 173.452 156.335 173.282 155.078Z" stroke="#DC3E48" stroke-miterlimit="10"/>
<path d="M172.481 149.219C187.829 139.787 203.855 131.888 220.236 125.768C220.282 127.118 220.313 128.468 220.359 129.817C204.102 135.86 188.214 143.667 173.005 153.007C172.836 151.75 172.666 150.492 172.481 149.234V149.219Z" stroke="#DC3E48" stroke-miterlimit="10"/>
<path d="M171.649 143.391C187.213 133.82 203.47 125.784 220.066 119.526C220.097 120.876 220.143 122.225 220.174 123.575C203.701 129.756 187.598 137.685 172.173 147.179C171.988 145.922 171.818 144.649 171.649 143.406V143.391Z" stroke="#DC3E48" stroke-miterlimit="10"/>
<path d="M224.674 110.968C242.087 104.649 259.546 100.416 276.697 98.4988C276.574 99.9251 276.466 101.367 276.342 102.793C259.33 104.634 242.01 108.79 224.751 115.032C224.72 113.667 224.705 112.318 224.674 110.953V110.968Z" stroke="#DC3E48" stroke-miterlimit="10"/>
<path d="M224.581 104.68C242.21 98.238 259.885 93.8668 277.252 91.8577C277.144 93.284 277.005 94.7257 276.897 96.1521C259.685 98.0999 242.133 102.394 224.658 108.759C224.628 107.394 224.612 106.045 224.597 104.695L224.581 104.68Z" stroke="#DC3E48" stroke-miterlimit="10"/>
<path d="M224.489 98.3914C242.333 91.8118 260.239 87.3333 277.806 85.2014C277.699 86.6431 277.575 88.0695 277.452 89.4958C260.024 91.551 242.272 95.9682 224.566 102.456C224.55 101.106 224.52 99.7411 224.504 98.3914H224.489Z" stroke="#DC3E48" stroke-miterlimit="10"/>
<path d="M170.771 137.041C186.566 127.317 203.054 119.142 219.897 112.747C219.928 114.081 219.974 115.446 220.005 116.781C203.301 123.099 186.951 131.182 171.295 140.814C171.11 139.556 170.94 138.299 170.771 137.026V137.041Z" stroke="#DC3E48" stroke-miterlimit="10"/>
<path d="M169.954 131.213C185.98 121.336 202.684 113.038 219.743 106.505C219.773 107.839 219.804 109.189 219.835 110.538C202.931 116.98 186.35 125.201 170.478 134.986C170.308 133.728 170.123 132.471 169.954 131.198V131.213Z" stroke="#DC3E48" stroke-miterlimit="10"/>
<path d="M169.137 125.369C185.379 115.37 202.299 106.919 219.589 100.247C219.619 101.597 219.65 102.946 219.681 104.296C202.545 110.86 185.764 119.235 169.661 129.158C169.492 127.9 169.307 126.642 169.137 125.369Z" stroke="#DC3E48" stroke-miterlimit="10"/>
<path d="M224.366 89.649C242.518 82.8853 260.717 78.2381 278.577 75.9529C278.454 77.3792 278.346 78.8209 278.222 80.2626C260.501 82.4712 242.441 87.0417 224.427 93.7134C224.396 92.3484 224.381 90.9987 224.366 89.649Z" stroke="#DC3E48" stroke-miterlimit="10"/>
<path d="M224.273 83.3607C242.657 76.4743 261.087 71.7044 279.147 69.3118C279.039 70.7535 278.9 72.1798 278.793 73.6215C260.84 75.9374 242.564 80.646 224.335 87.4557C224.304 86.0907 224.289 84.741 224.273 83.376V83.3607Z" stroke="#DC3E48" stroke-miterlimit="10"/>
<path d="M224.181 77.0725C242.78 70.0481 261.426 65.1555 279.717 62.6555C279.594 64.0819 279.455 65.5236 279.347 66.9653C261.195 69.3886 242.703 74.2198 224.242 81.1522C224.211 79.7872 224.196 78.4375 224.181 77.0725Z" stroke="#DC3E48" stroke-miterlimit="10"/>
<path d="M167.997 117.241C184.547 107.041 201.775 98.3912 219.357 91.5508C219.388 92.9005 219.419 94.2501 219.45 95.5845C202.006 102.348 184.917 110.906 168.505 121.014C168.336 119.756 168.151 118.498 167.981 117.241H167.997Z" stroke="#DC3E48" stroke-miterlimit="10"/>
<path d="M167.18 111.413C183.946 101.06 201.405 92.2717 219.219 85.3086C219.234 86.6583 219.28 88.0079 219.311 89.3576C201.652 96.244 184.347 104.94 167.72 115.201C167.535 113.943 167.365 112.686 167.196 111.413H167.18Z" stroke="#DC3E48" stroke-miterlimit="10"/>
<path d="M166.363 105.569C183.345 95.0784 201.035 86.1522 219.049 79.051C219.08 80.4007 219.111 81.7504 219.157 83.1001C201.282 90.1092 183.73 98.9434 166.887 109.357C166.718 108.1 166.533 106.827 166.363 105.569Z" stroke="#DC3E48" stroke-miterlimit="10"/>
<path d="M224.088 70.2323C242.934 63.0698 261.827 58.0392 280.334 55.4165C280.21 56.8582 280.087 58.2999 279.964 59.7263C261.58 62.2876 242.842 67.2262 224.15 74.312C224.119 72.947 224.119 71.582 224.088 70.2323Z" stroke="#DC3E48" stroke-miterlimit="10"/>
<path d="M224.011 63.9439C243.088 56.6434 262.196 51.49 280.935 48.76C280.811 50.2017 280.688 51.6281 280.565 53.0698C261.965 55.7231 243.011 60.8151 224.073 68.0082C224.042 66.6586 224.027 65.2936 224.011 63.9439Z" stroke="#DC3E48" stroke-miterlimit="10"/>
<path d="M223.919 57.6403C243.227 50.2171 262.551 44.9258 281.489 42.0884C281.366 43.5301 281.243 44.9564 281.104 46.3981C262.289 49.1742 243.104 54.3582 223.95 61.7047C223.934 60.3397 223.919 58.99 223.903 57.625L223.919 57.6403Z" stroke="#DC3E48" stroke-miterlimit="10"/>
<path d="M165.485 99.2194C182.713 88.56 200.635 79.4957 218.911 72.2412C218.941 73.5909 218.972 74.9406 219.003 76.2902C200.881 83.4527 183.098 92.4403 166.024 102.992C165.84 101.735 165.67 100.477 165.501 99.2194H165.485Z" stroke="#DC3E48" stroke-miterlimit="10"/>
<path d="M164.668 93.3913C182.128 82.5785 200.28 73.3609 218.756 65.9836C218.787 67.3333 218.818 68.683 218.849 70.0327C200.496 77.3332 182.497 86.4435 165.192 97.1643C165.007 95.9066 164.838 94.6489 164.668 93.3913Z" stroke="#DC3E48" stroke-miterlimit="10"/>
<path d="M163.852 87.5478C181.527 76.597 199.895 67.2413 218.618 59.7261C218.649 61.0758 218.679 62.4254 218.71 63.7751C200.142 71.1983 181.912 80.4774 164.376 91.3208C164.191 90.0631 164.037 88.7901 163.852 87.5325V87.5478Z" stroke="#DC3E48" stroke-miterlimit="10"/>
<path d="M162.311 76.5205C180.402 65.2936 199.217 55.6618 218.356 47.9165C218.387 49.6496 218.433 51.3981 218.464 53.1312C199.51 60.7844 180.895 70.2782 162.989 81.3824C162.758 79.7566 162.526 78.1462 162.311 76.5205Z" stroke="#DC3E48" stroke-miterlimit="10"/>
<path d="M161.263 68.9898C179.647 57.5636 198.739 47.7631 218.186 39.8337C218.233 41.5822 218.248 43.3153 218.294 45.0637C199.047 52.8857 180.155 62.5789 161.956 73.8671C161.725 72.2413 161.509 70.6156 161.278 69.0052L161.263 68.9898Z" stroke="#DC3E48" stroke-miterlimit="10"/>
<path d="M160.215 61.4746C178.892 49.8643 198.277 39.8798 218.001 31.7664C218.048 33.5148 218.078 35.2632 218.109 36.9964C198.585 44.9871 179.385 54.8642 160.893 66.3518C160.662 64.7261 160.431 63.1157 160.215 61.4899V61.4746Z" stroke="#DC3E48" stroke-miterlimit="10"/>
<path d="M1.38687 75.4286C47.2924 59.0177 98.6837 52.4994 149.844 57.714C158.889 115.121 167.935 172.544 176.98 229.951C141.338 214.461 105.418 209.553 73.4888 214.246C49.8812 167.621 25.8421 121.348 1.38687 75.4286Z" stroke="#DC3E48" stroke-miterlimit="10"/>
<path d="M85.0461 98.5263C65.4142 100.167 46.3524 103.603 28.2768 108.695C23.3765 98.9558 18.4608 89.2473 13.5297 79.5388C32.8843 73.3886 53.2713 68.9101 74.2902 66.2415C77.896 76.9929 81.4865 87.7596 85.0615 98.5263H85.0461Z" stroke="#DC3E48" stroke-miterlimit="10"/>
<path d="M120.088 206.117C104.817 204.507 90.0235 204.599 76.0315 206.332C72.9957 199.967 69.9446 193.617 66.8935 187.252C81.656 184.89 97.266 184.154 113.354 185.151C115.604 192.129 117.838 199.123 120.072 206.102L120.088 206.117Z" stroke="#DC3E48" stroke-miterlimit="10"/>
<path d="M143.603 73.9407C123.262 71.7628 102.814 71.6555 82.6268 73.5266C81.7793 70.8733 80.9317 68.2199 80.0842 65.5666C100.595 63.4501 121.398 63.312 142.062 65.2598C142.571 68.1432 143.079 71.042 143.603 73.9407Z" stroke="#DC3E48" stroke-miterlimit="10"/>
<path d="M145.961 87.3454C126.144 84.8147 106.219 84.3546 86.5409 85.827C85.6933 83.1736 84.8458 80.5203 83.9983 77.867C104 76.1338 124.264 76.3639 144.42 78.6645C144.928 81.5632 145.437 84.4466 145.945 87.3454H145.961Z" stroke="#DC3E48" stroke-miterlimit="10"/>
<path d="M148.334 100.735C129.041 97.8516 109.625 97.0234 90.4703 98.1276C89.6228 95.4743 88.7907 92.821 87.9431 90.1676C107.436 88.8179 127.176 89.4008 146.808 92.0694C147.317 94.9528 147.825 97.8516 148.334 100.735Z" stroke="#DC3E48" stroke-miterlimit="10"/>
<path d="M88.1435 107.897C68.8968 109.247 50.2202 112.376 32.5145 117.177C31.9135 115.98 31.3125 114.784 30.7269 113.603C48.5868 108.68 67.4328 105.413 86.8336 103.956C87.2651 105.275 87.712 106.594 88.1435 107.913V107.897Z" stroke="#DC3E48" stroke-miterlimit="10"/>
<path d="M90.1621 114.002C71.162 115.167 52.732 118.097 35.2728 122.698C34.6718 121.502 34.0862 120.305 33.4853 119.124C51.114 114.4 69.6981 111.333 88.8677 110.045C89.2992 111.364 89.7307 112.683 90.1621 114.002Z" stroke="#DC3E48" stroke-miterlimit="10"/>
<path d="M92.1808 120.121C73.4426 121.088 55.2592 123.833 38.0311 128.235C37.4456 127.038 36.8446 125.842 36.259 124.661C53.6412 120.121 71.9787 117.253 90.8864 116.164C91.3333 117.483 91.7648 118.802 92.1962 120.121H92.1808Z" stroke="#DC3E48" stroke-miterlimit="10"/>
<path d="M150.152 111.026C131.26 107.882 112.244 106.778 93.4598 107.606C93.0438 106.272 92.6123 104.937 92.1962 103.618C111.135 102.667 130.32 103.664 149.382 106.686C149.628 108.143 149.89 109.584 150.152 111.026Z" stroke="#DC3E48" stroke-miterlimit="10"/>
<path d="M151.323 117.729C132.677 114.416 113.924 113.112 95.4014 113.756C94.9854 112.422 94.5693 111.103 94.1378 109.769C112.814 109.017 131.738 110.183 150.553 113.388C150.799 114.83 151.061 116.272 151.308 117.729H151.323Z" stroke="#DC3E48" stroke-miterlimit="10"/>
<path d="M94.369 126.762C75.9082 127.529 57.9867 130.06 41.0206 134.247C40.4196 133.05 39.8341 131.854 39.2331 130.658C56.3687 126.333 74.4288 123.679 93.0592 122.79C93.4906 124.109 93.9221 125.428 94.3536 126.747L94.369 126.762Z" stroke="#DC3E48" stroke-miterlimit="10"/>
<path d="M96.3722 132.882C78.158 133.449 60.4831 135.796 43.7481 139.799C43.1626 138.603 42.5616 137.406 41.976 136.21C58.865 132.084 76.6941 129.615 95.0778 128.925C95.5093 130.244 95.9408 131.563 96.3722 132.882Z" stroke="#DC3E48" stroke-miterlimit="10"/>
<path d="M98.3909 139.001C80.4232 139.385 63.0103 141.532 46.4911 145.351C45.9055 144.154 45.3045 142.943 44.7189 141.762C61.3768 137.836 78.9593 135.55 97.0811 135.044C97.5126 136.363 97.944 137.682 98.3909 139.017V139.001Z" stroke="#DC3E48" stroke-miterlimit="10"/>
<path d="M153.789 131.701C135.682 128.035 117.453 126.363 99.4542 126.609C99.0381 125.274 98.6221 123.94 98.1906 122.621C116.343 122.253 134.742 123.802 153.018 127.376C153.265 128.817 153.527 130.259 153.773 131.716L153.789 131.701Z" stroke="#DC3E48" stroke-miterlimit="10"/>
<path d="M156.162 145.105C138.549 141.087 120.843 139.063 103.337 138.94C99.8394 127.774 96.326 116.624 92.7972 105.474C111.659 104.584 130.751 105.627 149.751 108.71C151.893 120.842 154.035 132.958 156.162 145.09V145.105Z" stroke="#DC3E48" stroke-miterlimit="10"/>
<path d="M101.165 147.513C83.5514 147.651 66.462 149.538 50.2818 153.065C49.6963 151.869 49.1107 150.673 48.5251 149.477C64.8594 145.811 82.1029 143.802 99.8702 143.556C100.302 144.875 100.733 146.194 101.165 147.513Z" stroke="#DC3E48" stroke-miterlimit="10"/>
<path d="M103.153 153.633C85.7858 153.587 68.943 155.274 52.9939 158.618C52.4084 157.406 51.8228 156.225 51.2372 155.029C67.3404 151.547 84.3373 149.737 101.858 149.676C102.29 150.995 102.721 152.314 103.153 153.633Z" stroke="#DC3E48" stroke-miterlimit="10"/>
<path d="M105.156 159.768C88.051 159.538 71.4394 161.041 55.7215 164.185C55.1359 162.989 54.5503 161.792 53.9648 160.581C69.8367 157.299 86.5871 155.673 103.861 155.796C104.293 157.115 104.724 158.434 105.156 159.768Z" stroke="#DC3E48" stroke-miterlimit="10"/>
<path d="M157.795 154.43C140.536 150.182 123.17 147.912 106.019 147.544C105.603 146.21 105.187 144.875 104.771 143.541C122.091 143.786 139.612 145.949 157.04 150.09C157.287 151.532 157.549 152.989 157.795 154.43Z" stroke="#DC3E48" stroke-miterlimit="10"/>
<path d="M158.982 161.133C141.985 156.716 124.865 154.262 107.96 153.71C107.544 152.375 107.128 151.041 106.712 149.707C123.786 150.136 141.06 152.467 158.227 156.777C158.473 158.219 158.735 159.66 158.982 161.117V161.133Z" stroke="#DC3E48" stroke-miterlimit="10"/>
<path d="M160.153 167.835C143.387 163.249 126.529 160.627 109.856 159.906C109.44 158.572 109.024 157.237 108.623 155.903C125.435 156.516 142.463 159.032 159.398 163.495C159.644 164.936 159.906 166.394 160.153 167.835Z" stroke="#DC3E48" stroke-miterlimit="10"/>
<path d="M107.313 166.424C90.4703 165.995 74.1361 167.283 58.6647 170.243C58.0791 169.047 57.4936 167.835 56.908 166.639C72.5334 163.556 89.0218 162.13 106.019 162.467C106.45 163.786 106.882 165.105 107.313 166.44V166.424Z" stroke="#DC3E48" stroke-miterlimit="10"/>
<path d="M109.301 172.559C92.7047 171.93 76.6016 173.05 61.3614 175.811C60.7758 174.614 60.1903 173.403 59.6047 172.206C74.9836 169.323 91.2408 168.081 107.991 168.587C108.423 169.906 108.854 171.24 109.286 172.559H109.301Z" stroke="#DC3E48" stroke-miterlimit="10"/>
<path d="M111.273 178.694C94.9237 177.881 79.0672 178.817 64.0581 181.378C63.4879 180.182 62.9024 178.985 62.3168 177.774C77.48 175.074 93.4906 174.031 109.994 174.722C110.426 176.041 110.842 177.36 111.273 178.694Z" stroke="#DC3E48" stroke-miterlimit="10"/>
<path d="M161.432 175.12C144.944 170.351 128.347 167.544 111.951 166.608C111.535 165.274 111.119 163.94 110.719 162.605C127.269 163.418 144.034 166.117 160.677 170.765C160.939 172.206 161.185 173.648 161.432 175.105V175.12Z" stroke="#DC3E48" stroke-miterlimit="10"/>
<path d="M162.619 181.823C146.377 176.9 130.027 173.909 113.878 172.805C113.462 171.47 113.046 170.136 112.645 168.802C128.964 169.798 145.468 172.667 161.863 177.482C162.11 178.924 162.372 180.381 162.619 181.823Z" stroke="#DC3E48" stroke-miterlimit="10"/>
<path d="M163.79 188.525C147.794 183.418 131.691 180.274 115.788 178.985C115.372 177.651 114.956 176.301 114.556 174.982C130.613 176.148 146.885 179.185 163.035 184.185C163.297 185.626 163.543 187.068 163.79 188.525Z" stroke="#DC3E48" stroke-miterlimit="10"/>
<path d="M166.024 201.179C150.491 195.78 134.85 192.298 119.394 190.673C118.87 188.955 118.331 187.222 117.807 185.504C133.463 186.976 149.305 190.32 165.038 195.596C165.361 197.452 165.685 199.323 166.024 201.179Z" stroke="#DC3E48" stroke-miterlimit="10"/>
<path d="M167.534 209.829C152.325 204.215 136.992 200.504 121.844 198.663C121.321 196.93 120.781 195.212 120.257 193.495C135.605 195.212 151.138 198.755 166.548 204.246C166.872 206.102 167.195 207.973 167.534 209.844V209.829Z" stroke="#DC3E48" stroke-miterlimit="10"/>
<path d="M169.044 218.448C154.143 212.635 139.134 208.709 124.295 206.639C123.771 204.921 123.247 203.188 122.707 201.47C137.747 203.402 152.957 207.175 168.058 212.866C168.382 214.737 168.721 216.592 169.044 218.448Z" stroke="#DC3E48" stroke-miterlimit="10"/>
</g>
<defs>
<clipPath id="clip0_1_303">
<rect width="293" height="254" fill="white"/>
</clipPath>
</defs>
</svg>
