<svg width="239" height="42" viewBox="0 0 239 42" fill="none" xmlns="http://www.w3.org/2000/svg">
<path d="M52.5713 9.61384V8.12208H55.463C55.1762 7.03195 54.2696 6.37787 53.0418 6.37787C52.6975 6.37787 52.468 6.40082 52.2041 6.46967V4.87463C52.468 4.79431 52.7205 4.77136 53.0533 4.77136C55.463 4.77136 57.2302 6.37787 57.2302 8.90238C57.2302 11.3122 55.463 13.0334 53.0533 13.0334C52.732 13.0334 52.468 13.0105 52.2041 12.9072V11.3351C52.468 11.404 52.6975 11.4269 53.0418 11.4269C54.2926 11.4269 55.2221 10.7499 55.486 9.61384H52.5713Z" fill="#DC3E48"/>
<path d="M61.1928 12.9187L60.0682 9.46466H59.5863V12.9187H58.0371V4.88611H59.5863V7.9729H60.1141L61.101 4.88611H62.696L61.3764 8.71878L62.8681 12.9187H61.1928Z" fill="#DC3E48"/>
<path d="M66.9856 13.0334C64.5758 13.0334 62.8087 11.3122 62.8087 8.90238C62.8087 6.37787 64.5758 4.77136 66.9856 4.77136C67.3184 4.77136 67.5708 4.79431 67.8348 4.87463V6.46967C67.5708 6.40082 67.3413 6.37787 66.9971 6.37787C65.5053 6.37787 64.4726 7.35325 64.4726 8.90238C64.4726 10.4515 65.5053 11.4269 66.9971 11.4269C67.3413 11.4269 67.5708 11.404 67.8348 11.3351V12.9072C67.5708 13.0105 67.3069 13.0334 66.9856 13.0334Z" fill="#DC3E48"/>
<path d="M71.9695 12.9187V6.37787H70.363V12.9187H68.7565V4.88611H73.576V12.9187H71.9695Z" fill="#DC3E48"/>
<path d="M74.6092 12.9187V4.88611H78.3386V6.37787H76.2157V7.9729H77.937V9.46466H76.2157V11.4269H78.5107V12.9187H74.6092Z" fill="#DC3E48"/>
<path d="M79.1956 12.9187V4.88611H80.4579C82.6382 4.88611 83.843 5.78116 83.843 7.52538C83.843 8.90238 83.0513 10.1646 80.8021 10.1646V12.9187H79.1956ZM80.8021 8.67288C81.6972 8.67288 82.1792 8.27126 82.1792 7.52538C82.1792 6.7795 81.6972 6.37787 80.8021 6.37787V8.67288Z" fill="#DC3E48"/>
<path d="M85.5096 12.9187V6.37787H84.0179V4.88611H88.6079V6.37787H87.1161V12.9187H85.5096Z" fill="#DC3E48"/>
<path d="M92.3996 12.9187V9.45319H90.7931V12.9187H89.1866V4.88611H90.7931V7.96143H92.3996V4.88611H94.0061V12.9187H92.3996Z" fill="#DC3E48"/>
<path d="M98.872 13.0334C96.5196 13.0334 94.8098 11.2548 94.8098 8.90238C94.8098 6.43524 96.5196 4.77136 98.872 4.77136C101.224 4.77136 102.957 6.43524 102.957 8.90238C102.957 11.2548 101.224 13.0334 98.872 13.0334ZM98.8834 11.4269C100.318 11.4269 101.293 10.3597 101.293 8.90238C101.293 7.44505 100.318 6.37787 98.8834 6.37787C97.4491 6.37787 96.4737 7.44505 96.4737 8.90238C96.4737 10.3597 97.4491 11.4269 98.8834 11.4269Z" fill="#DC3E48"/>
<path d="M103.417 10.6581V9.28106H107.353V10.6581H103.417Z" fill="#DC3E48"/>
<path d="M111.2 12.9187L110.076 9.46466H109.594V12.9187H108.045V4.88611H109.594V7.9729H110.122L111.109 4.88611H112.704L111.384 8.71878L112.876 12.9187H111.2Z" fill="#DC3E48"/>
<path d="M116.878 13.0334C114.526 13.0334 112.816 11.2548 112.816 8.90238C112.816 6.43524 114.526 4.77136 116.878 4.77136C119.231 4.77136 120.964 6.43524 120.964 8.90238C120.964 11.2548 119.231 13.0334 116.878 13.0334ZM116.89 11.4269C118.324 11.4269 119.3 10.3597 119.3 8.90238C119.3 7.44505 118.324 6.37787 116.89 6.37787C115.456 6.37787 114.48 7.44505 114.48 8.90238C114.48 10.3597 115.456 11.4269 116.89 11.4269Z" fill="#DC3E48"/>
<path d="M124.98 12.9187V9.45319H123.374V12.9187H121.767V4.88611H123.374V7.96143H124.98V4.88611H126.587V12.9187H124.98Z" fill="#DC3E48"/>
<path d="M131.567 13.0334C129.158 13.0334 127.39 11.3122 127.39 8.90238C127.39 6.37787 129.158 4.77136 131.567 4.77136C131.9 4.77136 132.153 4.79431 132.417 4.87463V6.46967C132.153 6.40082 131.923 6.37787 131.579 6.37787C130.087 6.37787 129.054 7.35325 129.054 8.90238C129.054 10.4515 130.087 11.4269 131.579 11.4269C131.923 11.4269 132.153 11.404 132.417 11.3351V12.9072C132.153 13.0105 131.889 13.0334 131.567 13.0334Z" fill="#DC3E48"/>
<path d="M133.832 12.9187V11.4269H134.474C135.255 11.4269 135.599 11.1859 135.714 10.3712H133.683L132.994 4.88611H134.601L135.048 8.87943H135.897L136.379 4.88611H138.02L137.217 10.5204C136.941 12.4367 136.058 12.9187 134.474 12.9187H133.832Z" fill="#DC3E48"/>
<path d="M137.791 11.4843C138.25 11.4843 138.571 11.2318 138.594 10.6695L138.789 4.88611H142.92V12.9187H141.371V6.35492H140.281L140.143 10.6695C140.086 12.6318 139.168 12.976 137.791 12.976V11.4843Z" fill="#DC3E48"/>
<path d="M143.957 12.9187V4.88611H145.563V7.64013C147.812 7.64013 148.604 8.90238 148.604 10.2794C148.604 11.9662 147.457 12.9187 145.563 12.9187H143.957ZM145.563 11.4269C146.458 11.4269 146.94 11.0253 146.94 10.2794C146.94 9.53351 146.458 9.13189 145.563 9.13189V11.4269Z" fill="#DC3E48"/>
<path d="M150.271 12.9187V6.37787H148.779V4.88611H153.369V6.37787H151.877V12.9187H150.271Z" fill="#DC3E48"/>
<path d="M152.633 12.9187L156.316 4.77136H156.546L160.229 12.9187H158.52L158.015 11.7138H154.802L154.297 12.9187H152.633ZM155.41 10.2794H157.407L156.408 7.89258L155.41 10.2794Z" fill="#DC3E48"/>
<path d="M160.979 12.9187V6.37787H159.487V4.88611H164.077V6.37787H162.585V12.9187H160.979Z" fill="#DC3E48"/>
<path d="M164.656 13.0334V4.88611H166.148V8.84501L169.143 4.77136H169.372V12.9187H167.88V8.95976L164.885 13.0334H164.656Z" fill="#DC3E48"/>
<path d="M170.408 12.9187V4.88611H171.67C173.621 4.88611 174.619 5.66641 174.619 7.04342C174.619 7.7434 174.332 8.30568 173.724 8.61551C174.619 8.94829 174.963 9.63679 174.963 10.5777C174.963 12.0695 173.931 12.9187 171.899 12.9187H170.408ZM171.899 11.5187C172.978 11.5187 173.449 11.1859 173.449 10.463C173.449 9.74007 172.99 9.40729 171.899 9.40729V11.5187ZM171.899 8.05323C172.668 8.05323 173.104 7.73193 173.104 7.15817C173.104 6.52704 172.68 6.27459 171.899 6.27459V8.05323Z" fill="#DC3E48"/>
<path d="M178.812 12.9187V9.45319H177.206V12.9187H175.599V4.88611H177.206V7.96143H178.812V4.88611H180.419V12.9187H178.812Z" fill="#DC3E48"/>
<path d="M181.452 12.9187V4.88611H183.058V7.64013C185.25 7.64013 186.042 8.90238 186.042 10.2794C186.042 12.0007 185.009 12.9187 182.944 12.9187H181.452ZM183.058 11.4269C183.954 11.4269 184.436 11.0253 184.436 10.2794C184.436 9.53351 183.954 9.13189 183.058 9.13189V11.4269ZM186.742 12.9187V4.88611H188.348V12.9187H186.742Z" fill="#DC3E48"/>
<path d="M191.971 4.62218C191.042 4.62218 190.238 4.17465 190.238 3.15337H191.466C191.466 3.4173 191.684 3.58943 191.971 3.58943C192.258 3.58943 192.476 3.4173 192.476 3.15337H193.704C193.704 4.17465 192.901 4.62218 191.971 4.62218ZM189.378 13.0334V4.88611H190.87V8.84501L193.865 4.77136H194.094V12.9187H192.602V8.95976L189.607 13.0334H189.378Z" fill="#DC3E48"/>
<path d="M56.2663 24.5085C53.8565 24.5085 52.0894 22.7872 52.0894 20.3775C52.0894 17.8529 53.8565 16.2464 56.2663 16.2464C56.5991 16.2464 56.8515 16.2694 57.1154 16.3497V17.9447C56.8515 17.8759 56.622 17.8529 56.2778 17.8529C54.786 17.8529 53.7532 18.8283 53.7532 20.3775C53.7532 21.9266 54.786 22.902 56.2778 22.902C56.622 22.902 56.8515 22.879 57.1154 22.8102V24.3823C56.8515 24.4855 56.5876 24.5085 56.2663 24.5085Z" fill="#DC3E48"/>
<path d="M61.5224 24.5085C59.17 24.5085 57.4602 22.7298 57.4602 20.3775C57.4602 17.9103 59.17 16.2464 61.5224 16.2464C63.8748 16.2464 65.6075 17.9103 65.6075 20.3775C65.6075 22.7298 63.8748 24.5085 61.5224 24.5085ZM61.5339 22.902C62.9683 22.902 63.9436 21.8348 63.9436 20.3775C63.9436 18.9201 62.9683 17.8529 61.5339 17.8529C60.0995 17.8529 59.1241 18.9201 59.1241 20.3775C59.1241 21.8348 60.0995 22.902 61.5339 22.902Z" fill="#DC3E48"/>
<path d="M66.4112 24.3937V16.3612H67.6735C69.6243 16.3612 70.6226 17.1415 70.6226 18.5185C70.6226 19.2185 70.3357 19.7808 69.7275 20.0906C70.6226 20.4234 70.9668 21.1119 70.9668 22.0528C70.9668 23.5446 69.9341 24.3937 67.903 24.3937H66.4112ZM67.903 22.9938C68.9816 22.9938 69.4521 22.661 69.4521 21.9381C69.4521 21.2151 68.9931 20.8824 67.903 20.8824V22.9938ZM67.903 19.5283C68.6718 19.5283 69.1079 19.207 69.1079 18.6332C69.1079 18.0021 68.6833 17.7497 67.903 17.7497V19.5283Z" fill="#DC3E48"/>
<path d="M71.6028 24.3937V16.3612H75.3322V17.8529H73.2093V19.448H74.9306V20.9397H73.2093V22.902H75.5043V24.3937H71.6028Z" fill="#DC3E48"/>
<path d="M77.222 24.3937V17.8529H75.7302V16.3612H80.3203V17.8529H78.8285V24.3937H77.222Z" fill="#DC3E48"/>
<path d="M82.852 24.3937V16.3612H84.1142C86.2945 16.3612 87.4994 17.2562 87.4994 19.0004C87.4994 20.3775 86.7076 21.6397 84.4585 21.6397V24.3937H82.852ZM84.4585 20.148C85.3535 20.148 85.8355 19.7463 85.8355 19.0004C85.8355 18.2546 85.3535 17.8529 84.4585 17.8529V20.148Z" fill="#DC3E48"/>
<path d="M91.8538 24.5085C89.5014 24.5085 87.7916 22.7298 87.7916 20.3775C87.7916 17.9103 89.5014 16.2464 91.8538 16.2464C94.2062 16.2464 95.9389 17.9103 95.9389 20.3775C95.9389 22.7298 94.2062 24.5085 91.8538 24.5085ZM91.8653 22.902C93.2997 22.902 94.275 21.8348 94.275 20.3775C94.275 18.9201 93.2997 17.8529 91.8653 17.8529C90.4309 17.8529 89.4555 18.9201 89.4555 20.3775C89.4555 21.8348 90.4309 22.902 91.8653 22.902Z" fill="#DC3E48"/>
<path d="M96.1155 22.902C96.5745 22.902 96.8844 22.6495 96.9073 21.9725L97.1024 16.3612H101.233V22.902H101.692V25.656H100.201V24.3937H97.6073V25.656H96.1155V22.902ZM98.2729 22.902H99.6843V17.83H98.5942L98.4565 21.9725C98.445 22.3397 98.3761 22.6495 98.2729 22.902Z" fill="#DC3E48"/>
<path d="M102.382 24.5085V16.3612H103.874V20.3201L106.869 16.2464H107.099V24.3937H105.607V20.4348L102.612 24.5085H102.382Z" fill="#DC3E48"/>
<path d="M109.167 24.3937V17.8529H107.675V16.3612H112.265V17.8529H110.774V24.3937H109.167Z" fill="#DC3E48"/>
<path d="M112.844 24.3937V16.3612H116.573V17.8529H114.451V19.448H116.172V20.9397H114.451V22.902H116.746V24.3937H112.844Z" fill="#DC3E48"/>
<path d="M116.971 22.9593C117.43 22.9593 117.752 22.7069 117.775 22.1446L117.97 16.3612H122.101V24.3937H120.552V17.83H119.462L119.324 22.1446C119.266 24.1069 118.348 24.4511 116.971 24.4511V22.9593Z" fill="#DC3E48"/>
<path d="M123.138 24.3937V16.3612H124.744V19.1152C126.993 19.1152 127.785 20.3775 127.785 21.7545C127.785 23.4413 126.637 24.3937 124.744 24.3937H123.138ZM124.744 22.902C125.639 22.902 126.121 22.5003 126.121 21.7545C126.121 21.0086 125.639 20.607 124.744 20.607V22.902Z" fill="#DC3E48"/>
<path d="M132.366 24.5085C129.956 24.5085 128.189 22.7872 128.189 20.3775C128.189 17.8529 129.956 16.2464 132.366 16.2464C132.699 16.2464 132.951 16.2694 133.215 16.3497V17.9447C132.951 17.8759 132.722 17.8529 132.378 17.8529C130.886 17.8529 129.853 18.8283 129.853 20.3775C129.853 21.9266 130.886 22.902 132.378 22.902C132.722 22.902 132.951 22.879 133.215 22.8102V24.3823C132.951 24.4855 132.687 24.5085 132.366 24.5085Z" fill="#DC3E48"/>
<path d="M137.293 24.3937L136.168 20.9397H135.686V24.3937H134.137V16.3612H135.686V19.448H136.214L137.201 16.3612H138.796L137.476 20.1939L138.968 24.3937H137.293Z" fill="#DC3E48"/>
<path d="M142.971 24.5085C140.618 24.5085 138.909 22.7298 138.909 20.3775C138.909 17.9103 140.618 16.2464 142.971 16.2464C145.323 16.2464 147.056 17.9103 147.056 20.3775C147.056 22.7298 145.323 24.5085 142.971 24.5085ZM142.982 22.902C144.417 22.902 145.392 21.8348 145.392 20.3775C145.392 18.9201 144.417 17.8529 142.982 17.8529C141.548 17.8529 140.572 18.9201 140.572 20.3775C140.572 21.8348 141.548 22.902 142.982 22.902Z" fill="#DC3E48"/>
<path d="M150.453 16.0973C149.523 16.0973 148.72 15.6497 148.72 14.6284H149.948C149.948 14.8924 150.166 15.0645 150.453 15.0645C150.74 15.0645 150.958 14.8924 150.958 14.6284H152.186C152.186 15.6497 151.382 16.0973 150.453 16.0973ZM147.86 24.5085V16.3612H149.351V20.3201L152.346 16.2464H152.576V24.3937H151.084V20.4348L148.089 24.5085H147.86Z" fill="#DC3E48"/>
<path d="M159.397 24.5085C157.045 24.5085 155.335 22.7298 155.335 20.3775C155.335 17.9103 157.045 16.2464 159.397 16.2464C161.75 16.2464 163.482 17.9103 163.482 20.3775C163.482 22.7298 161.75 24.5085 159.397 24.5085ZM159.409 22.902C160.843 22.902 161.818 21.8348 161.818 20.3775C161.818 18.9201 160.843 17.8529 159.409 17.8529C157.974 17.8529 156.999 18.9201 156.999 20.3775C156.999 21.8348 157.974 22.902 159.409 22.902Z" fill="#DC3E48"/>
<path d="M164.286 24.3937V16.3612H168.325V17.8529H165.87V19.1152C168.084 19.1152 168.876 20.3775 168.876 21.7545C168.876 23.4413 167.729 24.3937 165.87 24.3937H164.286ZM165.87 22.9249C166.765 22.9249 167.247 22.5003 167.247 21.7545C167.247 21.0086 166.765 20.584 165.87 20.584V22.9249Z" fill="#DC3E48"/>
<path d="M169.567 24.3937V16.3612H171.174V22.902H172.78V16.3612H174.387V22.902H175.993V16.3612H177.6V22.902H178.059V25.656H176.567V24.3937H169.567Z" fill="#DC3E48"/>
<path d="M178.748 24.3937V16.3612H182.478V17.8529H180.355V19.448H182.076V20.9397H180.355V22.902H182.65V24.3937H178.748Z" fill="#DC3E48"/>
<path d="M187.17 24.5085C184.76 24.5085 182.993 22.7872 182.993 20.3775C182.993 17.8529 184.76 16.2464 187.17 16.2464C187.503 16.2464 187.755 16.2694 188.019 16.3497V17.9447C187.755 17.8759 187.526 17.8529 187.181 17.8529C185.69 17.8529 184.657 18.8283 184.657 20.3775C184.657 21.9266 185.69 22.902 187.181 22.902C187.526 22.902 187.755 22.879 188.019 22.8102V24.3823C187.755 24.4855 187.491 24.5085 187.17 24.5085Z" fill="#DC3E48"/>
<path d="M189.974 24.3937V17.8529H188.482V16.3612H193.072V17.8529H191.58V24.3937H189.974Z" fill="#DC3E48"/>
<path d="M193.651 24.3937V16.3612H194.913C196.864 16.3612 197.862 17.1415 197.862 18.5185C197.862 19.2185 197.575 19.7808 196.967 20.0906C197.862 20.4234 198.206 21.1119 198.206 22.0528C198.206 23.5446 197.173 24.3937 195.142 24.3937H193.651ZM195.142 22.9938C196.221 22.9938 196.691 22.661 196.691 21.9381C196.691 21.2151 196.232 20.8824 195.142 20.8824V22.9938ZM195.142 19.5283C195.911 19.5283 196.347 19.207 196.347 18.6332C196.347 18.0021 195.923 17.7497 195.142 17.7497V19.5283Z" fill="#DC3E48"/>
<path d="M198.842 24.3937V16.3612H202.572V17.8529H200.449V19.448H202.17V20.9397H200.449V22.902H202.744V24.3937H198.842Z" fill="#DC3E48"/>
<path d="M206.642 24.3937V20.9283H205.035V24.3937H203.429V16.3612H205.035V19.4365H206.642V16.3612H208.248V24.3937H206.642Z" fill="#DC3E48"/>
<path d="M212.494 24.3937V20.9283H210.888V24.3937H209.281V16.3612H210.888V19.4365H212.494V16.3612H214.101V24.3937H212.494Z" fill="#DC3E48"/>
<path d="M218.967 24.5085C216.614 24.5085 214.905 22.7298 214.905 20.3775C214.905 17.9103 216.614 16.2464 218.967 16.2464C221.319 16.2464 223.052 17.9103 223.052 20.3775C223.052 22.7298 221.319 24.5085 218.967 24.5085ZM218.978 22.902C220.413 22.902 221.388 21.8348 221.388 20.3775C221.388 18.9201 220.413 17.8529 218.978 17.8529C217.544 17.8529 216.568 18.9201 216.568 20.3775C216.568 21.8348 217.544 22.902 218.978 22.902Z" fill="#DC3E48"/>
<path d="M227.803 24.5085C225.393 24.5085 223.626 22.7872 223.626 20.3775C223.626 17.8529 225.393 16.2464 227.803 16.2464C228.136 16.2464 228.388 16.2694 228.652 16.3497V17.9447C228.388 17.8759 228.159 17.8529 227.814 17.8529C226.323 17.8529 225.29 18.8283 225.29 20.3775C225.29 21.9266 226.323 22.902 227.814 22.902C228.159 22.902 228.388 22.879 228.652 22.8102V24.3823C228.388 24.4855 228.124 24.5085 227.803 24.5085Z" fill="#DC3E48"/>
<path d="M230.607 24.3937V17.8529H229.115V16.3612H233.705V17.8529H232.213V24.3937H230.607Z" fill="#DC3E48"/>
<path d="M234.283 24.5085V16.3612H235.775V20.3201L238.77 16.2464H239V24.3937H237.508V20.4348L234.513 24.5085H234.283Z" fill="#DC3E48"/>
<path d="M52.0894 35.2382C52.5611 35.2382 52.7584 35.0838 52.7756 34.4576L52.9214 29.8342H55.409V35.2382H55.7435V36.7822H55.1002V35.8386H52.7327V36.7822H52.0894V35.2382ZM53.316 35.2382H54.7227V30.4775H53.5905L53.4618 34.4576C53.4532 34.7664 53.4103 35.0237 53.316 35.2382Z" fill="#DC3E48"/>
<path d="M56.6858 35.8386V29.8342H58.959V30.4775H57.3721V32.3989H58.6587V32.9994H57.3721V35.1953H59.0876V35.8386H56.6858Z" fill="#DC3E48"/>
<path d="M62.4323 35.8386V30.4775H60.7167V35.8386H60.0305V29.8342H63.1185V35.8386H62.4323Z" fill="#DC3E48"/>
<path d="M63.7193 35.8386L66.0782 29.8342H66.5156L68.8831 35.8386H68.1283L67.6736 34.6377H64.903L64.4484 35.8386H63.7193ZM65.126 34.0373H67.4506L66.2926 30.9579L65.126 34.0373Z" fill="#DC3E48"/>
<path d="M69.4842 35.8386V29.8342H69.9988C71.5085 29.8342 72.4006 30.4689 72.4006 31.7642C72.4006 33.008 71.5085 33.6942 70.1704 33.6942V35.8386H69.4842ZM70.1704 33.0508C71.0968 33.0508 71.7144 32.6648 71.7144 31.7642C71.7144 30.8635 71.0968 30.4775 70.1704 30.4775V33.0508Z" fill="#DC3E48"/>
<path d="M73.7747 35.8386V30.4775H72.6596V29.8342H75.5761V30.4775H74.4609V35.8386H73.7747Z" fill="#DC3E48"/>
<path d="M75.4873 35.8386L77.8462 29.8342H78.2836L80.6511 35.8386H79.8962L79.4416 34.6377H76.671L76.2164 35.8386H75.4873ZM76.894 34.0373H79.2186L78.0606 30.9579L76.894 34.0373Z" fill="#DC3E48"/>
<path d="M81.2521 29.8342C82.17 29.9628 82.8733 30.6834 83.5853 31.6269C84.3058 30.6834 85.0006 29.9628 85.9099 29.8342V35.8386H85.2236V30.7863L83.6196 32.4847H83.5338L81.9384 30.7949V35.8386H81.2521V29.8342Z" fill="#DC3E48"/>
<path d="M87.1936 35.8386V29.8342H89.4667V30.4775H87.8798V32.3989H89.1665V32.9994H87.8798V35.1953H89.5954V35.8386H87.1936Z" fill="#DC3E48"/>
<path d="M92.94 35.8386V32.9908H91.2245V35.8386H90.5383V29.8342H91.2245V32.3904H92.94V29.8342H93.6263V35.8386H92.94Z" fill="#DC3E48"/>
<path d="M95.5995 35.8386V30.4775H94.4844V29.8342H97.4008V30.4775H96.2857V35.8386H95.5995Z" fill="#DC3E48"/>
<path d="M102.411 35.9244C100.696 35.9244 99.3747 34.6806 99.3747 32.8364C99.3747 30.9922 100.696 29.7484 102.411 29.7484C104.127 29.7484 105.465 30.9922 105.465 32.8364C105.465 34.6806 104.127 35.9244 102.411 35.9244ZM102.42 35.2553C103.784 35.2553 104.753 34.286 104.753 32.8364C104.753 31.3868 103.784 30.4175 102.42 30.4175C101.056 30.4175 100.087 31.3868 100.087 32.8364C100.087 34.286 101.056 35.2553 102.42 35.2553Z" fill="#DC3E48"/>
<path d="M106.405 35.8386V29.8342H109.055V30.4775H107.091V31.9786C108.429 31.9786 109.321 32.6648 109.321 33.9086C109.321 35.2039 108.429 35.8386 106.919 35.8386H106.405ZM107.091 35.1953C108.017 35.1953 108.635 34.8093 108.635 33.9086C108.635 33.008 108.017 32.622 107.091 32.622V35.1953Z" fill="#DC3E48"/>
<path d="M110.269 35.8386V29.8342H110.783C112.293 29.8342 113.185 30.4689 113.185 31.7642C113.185 33.008 112.293 33.6942 110.955 33.6942V35.8386H110.269ZM110.955 33.0508C111.881 33.0508 112.499 32.6648 112.499 31.7642C112.499 30.8635 111.881 30.4775 110.955 30.4775V33.0508Z" fill="#DC3E48"/>
<path d="M113.011 35.8386L115.37 29.8342H115.807L118.175 35.8386H117.42L116.965 34.6377H114.195L113.74 35.8386H113.011ZM114.418 34.0373H116.742L115.584 30.9579L114.418 34.0373Z" fill="#DC3E48"/>
<path d="M118.965 35.9244C118.819 35.9244 118.647 35.9072 118.347 35.8386V35.1696C118.596 35.2296 118.707 35.2553 118.922 35.2553C119.659 35.2553 119.994 34.7664 119.994 34.166C119.994 33.5912 119.728 33.0337 118.827 33.0337V32.3818C119.522 32.3818 119.865 31.9529 119.865 31.361C119.865 30.7863 119.505 30.4175 119.008 30.4175C118.819 30.4175 118.673 30.4346 118.476 30.4947V29.8256C118.604 29.7827 118.81 29.7484 119.008 29.7484C120.045 29.7484 120.569 30.4518 120.569 31.361C120.569 31.9786 120.234 32.5104 119.805 32.6734C120.346 32.8364 120.697 33.454 120.697 34.166C120.697 35.1867 120.071 35.9244 118.965 35.9244Z" fill="#DC3E48"/>
<path d="M124.337 35.9244C122.621 35.9244 121.3 34.6806 121.3 32.8364C121.3 30.9922 122.621 29.7484 124.337 29.7484C126.052 29.7484 127.39 30.9922 127.39 32.8364C127.39 34.6806 126.052 35.9244 124.337 35.9244ZM124.345 35.2553C125.709 35.2553 126.678 34.286 126.678 32.8364C126.678 31.3868 125.709 30.4175 124.345 30.4175C122.981 30.4175 122.012 31.3868 122.012 32.8364C122.012 34.286 122.981 35.2553 124.345 35.2553Z" fill="#DC3E48"/>
<path d="M128.33 35.8386V29.8342H128.931C130.174 29.8342 130.903 30.3317 130.903 31.4039C130.903 31.9786 130.689 32.3989 130.191 32.5791C130.903 32.7849 131.221 33.3511 131.221 34.0544C131.221 35.2124 130.363 35.8386 129.016 35.8386H128.33ZM129.016 35.1953C130.02 35.1953 130.509 34.8093 130.509 34.0544C130.509 33.2996 130.02 32.9393 129.016 32.9393V35.1953ZM129.016 32.3046C129.848 32.3046 130.191 31.9786 130.191 31.4039C130.191 30.8292 129.848 30.4775 129.016 30.4775V32.3046Z" fill="#DC3E48"/>
<path d="M131.474 35.8386L133.833 29.8342H134.271L136.638 35.8386H135.883L135.429 34.6377H132.658L132.203 35.8386H131.474ZM132.881 34.0373H135.206L134.048 30.9579L132.881 34.0373Z" fill="#DC3E48"/>
<path d="M139.641 35.8386V32.9908H137.925V35.8386H137.239V29.8342H137.925V32.3904H139.641V29.8342H140.327V35.8386H139.641Z" fill="#DC3E48"/>
<path d="M141.614 35.8386V29.8342H142.283V33.9429L144.196 29.8342H144.625V35.8386H143.956V31.7299L142.043 35.8386H141.614Z" fill="#DC3E48"/>
<path d="M147.973 33.5226C147.775 33.5226 147.587 33.5055 147.415 33.4797L146.317 35.8386H145.571L146.78 33.2824C146.137 32.9908 145.742 32.4332 145.742 31.6784C145.742 30.4689 146.669 29.8342 148.144 29.8342H148.659V35.8386H147.973V33.5226ZM147.973 30.4775C147.08 30.4775 146.429 30.8635 146.429 31.6784C146.429 32.4933 147.08 32.8793 147.973 32.8793V30.4775Z" fill="#DC3E48"/>
<path d="M151.405 35.8386V29.8342H152.074V33.9429L153.987 29.8342H154.416V35.8386H153.747V31.7299L151.834 35.8386H151.405Z" fill="#DC3E48"/>
<path d="M159.567 35.8386V32.9908H157.851V35.8386H157.165V29.8342H157.851V32.3904H159.567V29.8342H160.253V35.8386H159.567Z" fill="#DC3E48"/>
<path d="M160.854 35.8386L163.212 29.8342H163.65L166.017 35.8386H165.263L164.808 34.6377H162.037L161.583 35.8386H160.854ZM162.26 34.0373H164.585L163.427 30.9579L162.26 34.0373Z" fill="#DC3E48"/>
<path d="M166.863 35.8386V35.2382H167.171C167.806 35.2382 167.969 35.0066 168.072 34.3289L168.132 33.9344H166.794L166.194 29.8342H166.897L167.395 33.3339H168.218L168.741 29.8342H169.436L168.75 34.3032C168.587 35.3411 168.201 35.8386 167.171 35.8386H166.863Z" fill="#DC3E48"/>
<path d="M172.689 35.8386L171.634 32.9994H171.068V35.8386H170.382V29.8342H171.068V32.3989H171.66L172.638 29.8342H173.358L172.243 32.7077L173.436 35.8386H172.689Z" fill="#DC3E48"/>
<path d="M174.204 35.8386V29.8342H174.873V33.9429L176.786 29.8342H177.215V35.8386H176.546V31.7299L174.633 35.8386H174.204Z" fill="#DC3E48"/>
<path d="M179.964 35.8386V29.8342H181.997V30.4775H180.65V35.8386H179.964Z" fill="#DC3E48"/>
<path d="M185.29 35.9244C183.574 35.9244 182.253 34.6806 182.253 32.8364C182.253 30.9922 183.574 29.7484 185.29 29.7484C187.005 29.7484 188.343 30.9922 188.343 32.8364C188.343 34.6806 187.005 35.9244 185.29 35.9244ZM185.298 35.2553C186.662 35.2553 187.631 34.286 187.631 32.8364C187.631 31.3868 186.662 30.4175 185.298 30.4175C183.934 30.4175 182.965 31.3868 182.965 32.8364C182.965 34.286 183.934 35.2553 185.298 35.2553Z" fill="#DC3E48"/>
<path d="M189.283 35.8386V29.8342H189.798C191.308 29.8342 192.2 30.4689 192.2 31.7642C192.2 33.008 191.308 33.6942 189.969 33.6942V35.8386H189.283ZM189.969 33.0508C190.896 33.0508 191.513 32.6648 191.513 31.7642C191.513 30.8635 190.896 30.4775 189.969 30.4775V33.0508Z" fill="#DC3E48"/>
<path d="M195.665 35.9244C193.949 35.9244 192.628 34.6806 192.628 32.8364C192.628 30.9922 193.949 29.7484 195.665 29.7484C197.38 29.7484 198.718 30.9922 198.718 32.8364C198.718 34.6806 197.38 35.9244 195.665 35.9244ZM195.673 35.2553C197.037 35.2553 198.007 34.286 198.007 32.8364C198.007 31.3868 197.037 30.4175 195.673 30.4175C194.31 30.4175 193.34 31.3868 193.34 32.8364C193.34 34.286 194.31 35.2553 195.673 35.2553Z" fill="#DC3E48"/>
<path d="M199.06 35.2382C199.532 35.2382 199.729 35.0838 199.746 34.4576L199.892 29.8342H202.38V35.2382H202.714V36.7822H202.071V35.8386H199.703V36.7822H199.06V35.2382ZM200.287 35.2382H201.693V30.4775H200.561L200.432 34.4576C200.424 34.7664 200.381 35.0237 200.287 35.2382Z" fill="#DC3E48"/>
<path d="M202.97 35.8386L205.329 29.8342H205.767L208.134 35.8386H207.379L206.925 34.6377H204.154L203.699 35.8386H202.97ZM204.377 34.0373H206.702L205.544 30.9579L204.377 34.0373Z" fill="#DC3E48"/>
<path d="M210.195 29.8342C211.113 29.9628 211.816 30.6834 212.528 31.6269C213.249 30.6834 213.943 29.9628 214.853 29.8342V35.8386H214.166V30.7863L212.562 32.4847H212.477L210.881 30.7949V35.8386H210.195V29.8342Z" fill="#DC3E48"/>
<path d="M218.83 35.9244C217.114 35.9244 215.793 34.6806 215.793 32.8364C215.793 30.9922 217.114 29.7484 218.83 29.7484C220.545 29.7484 221.884 30.9922 221.884 32.8364C221.884 34.6806 220.545 35.9244 218.83 35.9244ZM218.838 35.2553C220.202 35.2553 221.172 34.286 221.172 32.8364C221.172 31.3868 220.202 30.4175 218.838 30.4175C217.475 30.4175 216.505 31.3868 216.505 32.8364C216.505 34.286 217.475 35.2553 218.838 35.2553Z" fill="#DC3E48"/>
<path d="M225.525 35.9244C223.741 35.9244 222.48 34.6806 222.48 32.8364C222.48 30.9922 223.741 29.7484 225.525 29.7484C225.654 29.7484 225.8 29.757 225.997 29.7999V30.4518C225.843 30.4346 225.663 30.4175 225.525 30.4175C224.119 30.4175 223.192 31.3868 223.192 32.8364C223.192 34.286 224.119 35.2553 225.525 35.2553C225.663 35.2553 225.886 35.2296 226.023 35.2124V35.8644C225.826 35.9072 225.654 35.9244 225.525 35.9244Z" fill="#DC3E48"/>
<path d="M229.271 35.8386L228.216 32.9994H227.65V35.8386H226.964V29.8342H227.65V32.3989H228.242L229.22 29.8342H229.94L228.825 32.7077L230.018 35.8386H229.271Z" fill="#DC3E48"/>
<path d="M230.786 35.8386V29.8342H231.386C232.63 29.8342 233.359 30.3317 233.359 31.4039C233.359 31.9786 233.145 32.3989 232.647 32.5791C233.359 32.7849 233.677 33.3511 233.677 34.0544C233.677 35.2124 232.819 35.8386 231.472 35.8386H230.786ZM231.472 35.1953C232.476 35.1953 232.965 34.8093 232.965 34.0544C232.965 33.2996 232.476 32.9393 231.472 32.9393V35.1953ZM231.472 32.3046C232.304 32.3046 232.647 31.9786 232.647 31.4039C232.647 30.8292 232.304 30.4775 231.472 30.4775V32.3046Z" fill="#DC3E48"/>
<path d="M234.617 35.8386V29.8342H235.303V31.9786C236.641 31.9786 237.533 32.6648 237.533 33.9086C237.533 35.2039 236.641 35.8386 235.131 35.8386H234.617ZM235.303 35.1953C236.229 35.1953 236.847 34.8093 236.847 33.9086C236.847 33.008 236.229 32.622 235.303 32.622V35.1953ZM238.314 35.8386V29.8342H239V35.8386H238.314Z" fill="#DC3E48"/>
<path d="M33.2328 0.14431C31.2919 0.14431 28.3511 0.379532 25.8809 1.37923C24.0577 2.1437 22.2932 3.49623 20.9405 4.78995C19.5877 3.49623 17.8821 2.1437 16 1.37923C13.5886 0.379532 10.5891 0.14431 8.70701 0.14431H5.53101V32.4874H8.70701V3.31981C10.3538 3.31981 12.8829 3.55503 14.8237 4.31951C17.4704 5.37801 20.1171 8.31829 20.9405 9.37679C21.7639 8.31829 24.4105 5.43681 27.0572 4.31951C28.9981 3.55503 31.5271 3.31981 33.1739 3.31981V32.4874H36.3499V0.14431H33.1739H33.2328Z" fill="#DC3E48"/>
<path d="M20.9988 12.7914C19.5873 10.7332 16.3525 7.49893 13.7058 6.44043C12.9412 6.1464 12.0002 5.91118 11.1179 5.85237V32.5501H14.2939V10.498C16.9994 12.1446 19.2932 15.3789 20.9988 17.9075C22.7044 15.4377 24.9982 12.1446 27.7037 10.498V32.5501H30.8797V5.85237C29.9975 5.96998 29.0564 6.1464 28.2918 6.44043C25.6452 7.49893 22.4104 10.7332 21.0576 12.7914" fill="#DC3E48"/>
<path d="M38.7589 0.153418V34.8487H26.7019C24.2905 34.8487 22.2908 35.8484 20.938 37.4362C19.6441 35.8484 17.5856 34.8487 15.1742 34.8487H3.176V0.0946121H0L0 37.9654H15.1742C17.5856 37.9654 19.35 39.612 19.35 41.9054H22.526C22.526 39.612 24.2905 37.9654 26.7019 37.9654H41.8761V0.0946121H38.7589V0.153418Z" fill="#DC3E48"/>
</svg>
