<svg width="35" height="34" viewBox="0 0 35 34" fill="none" xmlns="http://www.w3.org/2000/svg">
<rect x="0.833374" y="0.5" width="33" height="33" rx="16.5" stroke="white"/>
<path d="M22.8915 10.1236C20.6489 11.0524 11.0325 15.0356 8.37557 16.1212C6.59368 16.8166 7.63682 17.4686 7.63682 17.4686C7.63682 17.4686 9.15788 17.9901 10.4619 18.3812C11.7656 18.7724 12.461 18.3378 12.461 18.3378L18.589 14.209C20.762 12.7313 20.2406 13.9482 19.7189 14.4699C18.589 15.5999 16.7202 17.3816 15.1555 18.8159C14.4602 19.4244 14.8078 19.9458 15.1122 20.2067C16.2421 21.1629 19.3279 23.1187 19.5016 23.249C20.4197 23.899 22.2257 24.8346 22.5004 22.8578L23.5869 16.0345C23.9347 13.7311 24.2823 11.6014 24.3256 10.993C24.4561 9.51515 22.8915 10.1236 22.8915 10.1236Z" stroke="white"/>
</svg>
