<svg width="35" height="34" viewBox="0 0 35 34" fill="none" xmlns="http://www.w3.org/2000/svg">
<rect x="0.833374" y="0.5" width="33" height="33" rx="16.5" stroke="white"/>
<path d="M7.33337 12.0096C7.48523 19.5036 11.1865 24 17.678 24H18.0577V19.7149C20.4398 19.9551 22.243 21.723 22.9642 24H26.3334C25.9879 22.7061 25.3752 21.5011 24.536 20.4643C23.6968 19.4277 22.65 18.5829 21.4647 17.9855C22.5269 17.3308 23.4442 16.4612 24.1594 15.4314C24.8746 14.4015 25.3725 13.2334 25.6216 12H22.5656C21.9014 14.3827 19.9273 16.5444 18.0577 16.7461V12.0096H14.9922V20.3107C13.0941 19.8302 10.7025 17.5052 10.5981 12.0096H7.33337Z" stroke="white"/>
</svg>
